<svg width="296" height="195" viewBox="0 0 296 195" fill="none" xmlns="http://www.w3.org/2000/svg">
<path d="M121.782 28.5841C121.307 28.5841 120.813 28.5841 120.301 28.5841C119.808 28.5658 119.296 28.5384 118.766 28.5018C118.363 29.9277 117.961 31.4176 117.559 32.9715L114.268 32.7521C115.292 29.297 116.435 25.8145 117.696 22.3046C118.958 18.7764 120.301 15.3487 121.727 12.0215C122.403 11.9484 123.153 11.8844 123.976 11.8296C124.817 11.7748 125.676 11.7473 126.553 11.7473C127.668 14.4529 128.857 17.5789 130.118 21.1255C131.379 24.672 132.677 28.4927 134.012 32.5876C132.952 32.7704 131.946 32.9075 130.996 32.9989C130.063 33.0903 129.113 33.136 128.144 33.136C127.76 31.6004 127.33 29.9826 126.855 28.2824C125.228 28.4835 123.537 28.5841 121.782 28.5841ZM122.851 14.9556C122.467 15.9976 121.983 17.4418 121.398 19.2882C120.831 21.1346 120.201 23.3009 119.506 25.7871C120.237 25.8785 120.987 25.9425 121.754 25.979C122.541 26.0156 123.382 26.0339 124.277 26.0339C124.606 26.0339 124.935 26.0339 125.264 26.0339C125.612 26.0156 125.932 26.0065 126.224 26.0065C125.822 24.544 125.411 23.1272 124.99 21.7561C124.588 20.3668 124.204 19.0963 123.839 17.9446C123.473 16.7746 123.144 15.7783 122.851 14.9556ZM135.931 32.9167C135.931 30.3939 135.922 28.0265 135.904 25.8145C135.904 23.5842 135.895 21.5642 135.877 19.7544C135.877 17.9446 135.867 16.3998 135.849 15.1202C135.831 13.8405 135.813 12.899 135.794 12.2958C136.873 12.1495 137.851 12.0398 138.728 11.9667C139.624 11.8936 140.465 11.857 141.251 11.857C143.408 11.857 145.264 12.1221 146.818 12.6522C148.39 13.1641 149.596 13.9136 150.437 14.9008C151.278 15.8697 151.699 17.0305 151.699 18.3833C151.699 19.8092 151.233 21.0889 150.3 22.2223C149.386 23.3557 148.106 24.2606 146.461 24.937C144.834 25.6134 142.951 25.9882 140.812 26.0613C140.831 27.1947 140.84 28.3281 140.84 29.4616C140.858 30.595 140.867 31.7101 140.867 32.807C140.246 32.8435 139.533 32.871 138.728 32.8892C137.942 32.9075 137.01 32.9167 135.931 32.9167ZM140.428 14.0233C140.502 15.0288 140.566 16.3998 140.62 18.1365C140.694 19.8732 140.748 21.7744 140.785 23.8402C144.679 23.31 146.626 21.683 146.626 18.9592C146.626 17.4418 146.068 16.2444 144.953 15.367C143.838 14.4712 142.33 14.0233 140.428 14.0233ZM153.347 32.8892C153.567 28.447 153.676 23.9316 153.676 19.3431C153.676 18.5753 153.667 17.7343 153.649 16.8203C153.649 15.888 153.64 15.0105 153.621 14.1878C153.621 13.3652 153.612 12.7071 153.594 12.2135C153.813 12.1769 154.179 12.1495 154.691 12.1312C155.221 12.1129 155.797 12.1038 156.418 12.1038C156.912 12.1038 157.396 12.1129 157.872 12.1312C158.365 12.1495 158.786 12.1769 159.133 12.2135C159.097 13.3469 159.069 14.4803 159.051 15.6137C159.033 16.7472 159.014 17.8257 158.996 18.8495C158.996 19.8549 158.996 20.7324 158.996 21.4819C158.996 23.9681 159.023 26.1253 159.078 27.9534C159.151 29.7815 159.252 31.3993 159.38 32.807C158.393 32.8435 157.387 32.8618 156.364 32.8618C155.358 32.8801 154.353 32.8892 153.347 32.8892ZM162.68 32.7796C162.68 31.9569 162.689 30.9606 162.708 29.7906C162.726 28.6024 162.744 27.3318 162.762 25.979C162.799 24.608 162.835 23.2278 162.872 21.8384C162.909 20.4308 162.945 19.0963 162.982 17.8349C163.037 16.5552 163.082 15.4309 163.119 14.4621C163.155 13.4749 163.192 12.7254 163.229 12.2135C163.704 12.1769 164.371 12.1495 165.23 12.1312C166.108 12.1129 167.195 12.1038 168.493 12.1038C169.992 14.3158 171.555 16.674 173.182 19.1785C174.828 21.6647 176.5 24.3246 178.201 27.1582L177.597 12.0764C178.073 12.0764 178.585 12.0947 179.133 12.1312C179.7 12.1495 180.248 12.1769 180.778 12.2135C180.778 13.7491 180.769 15.3944 180.751 17.1493C180.733 18.886 180.714 20.6136 180.696 22.332C180.678 24.0504 180.65 25.65 180.614 27.1307C180.577 28.5932 180.541 29.8272 180.504 30.8326C180.486 31.8381 180.458 32.4962 180.422 32.807C180.038 32.8253 179.517 32.8435 178.859 32.8618C178.219 32.8801 177.57 32.8892 176.912 32.8892C176.254 32.9075 175.714 32.9167 175.294 32.9167C173.85 30.5584 172.241 28.0722 170.468 25.458C168.713 22.8439 166.94 20.248 165.148 17.6704L165.861 32.9441C164.837 32.9441 163.777 32.8892 162.68 32.7796Z" fill="#0255A3"/>
<path d="M68.8194 68.7956C62.6678 85.3578 68.1096 91.0364 73.0783 92.9292C80.4603 90.2792 80.7284 85.3579 79.9397 83.2285C76.1541 78.733 72.0372 68.843 85.8548 65.2467C103.127 60.7512 107.149 62.644 107.859 74.7108C108.569 86.7775 112.354 94.5854 120.872 94.5854C127.686 94.5854 135.068 96.4782 137.907 97.4246C137.592 98.5288 137.481 101.494 139.564 104.523C141.646 107.551 137.592 112.252 135.305 114.223C137.907 114.145 145.526 111.763 148.554 96.2416C152.34 76.8402 142.876 52.7067 119.216 49.1576C95.5555 45.6086 74.9711 52.2335 68.8194 68.7956Z" fill="#FFB3CD"/>
<path d="M165.117 84.648C162.845 84.8373 154.549 90.7208 150.684 93.6389C146.709 92.3139 145.873 82.2031 145.952 77.3133L147.135 67.1394L156.126 55.0727C158.413 53.9685 164.36 51.5709 169.849 50.8138C175.338 50.0567 180.023 49.5519 181.679 49.3942L202.027 48.2112L221.901 60.7511L230.182 75.4205L227.816 97.8977L221.428 111.384C216.318 115.927 216.775 118.482 217.643 119.192L218.116 125.817L214.33 131.968L209.835 137.647L207.705 146.165C207.705 146.401 207.185 147.111 205.103 148.057C203.02 149.004 202.658 150.818 202.737 151.607C203.115 158.231 196.427 157.837 193.036 156.812L193.746 152.553L195.402 148.057L196.112 144.035C196.033 143.325 196.396 141.338 198.478 139.067C201.08 136.227 198.714 134.571 198.478 133.625C198.288 132.868 197.452 129.997 197.058 128.656L202.263 122.031L206.995 119.192L211.964 113.04H215.513L216.46 111.384L218.352 107.362V101.92L210.308 98.3709L206.995 99.3173L199.424 92.2193C196.206 91.6514 187.042 88.197 182.862 86.5408C178.319 88.0551 169.139 85.9099 165.117 84.648Z" fill="#FFB3CD"/>
<path d="M83.7254 124.634C71.6587 116.826 71.5007 98.5286 72.6049 89.6166C58.6452 122.031 89.6404 136.7 103.363 134.571C117.086 132.442 122.37 123.451 125.604 117.772C111.645 135.044 95.7921 132.442 83.7254 124.634Z" fill="#0255A3"/>
<path d="M134.747 114.797C134.869 114.921 134.976 115.047 135.068 115.17C131.85 121.795 127.102 118.561 125.131 116.116C129.519 112.216 132.825 113.153 134.422 114.494C134.88 113.441 135.562 111.794 136.014 110.438C136.724 108.308 139.564 94.3486 126.314 101.447C126.787 98.923 129.626 94.4433 137.197 96.7147C146.272 99.437 139.685 111.512 134.747 114.797Z" fill="#0255A3"/>
<path d="M80.6495 78.7329C77.9995 69.8366 85.0661 66.1929 88.9306 65.4831C78.5201 62.1708 71.4309 73.4475 75.9174 80.6257C80.6496 88.197 77.1005 91.5094 75.2076 92.2192C79.9397 92.2192 83.9619 89.8532 80.6495 78.7329Z" fill="#0255A3"/>
<path d="M94.3724 50.104C85.6181 51.9968 79.7031 54.3628 72.3684 65.4832C65.0911 80.3842 67.4361 88.3593 70.0024 91.1145C62.1945 92.1392 60.5383 71.6348 68.5827 59.3315C75.0183 49.4888 88.4574 49.0787 94.3724 50.104Z" fill="#0255A3"/>
<path d="M144.296 70.6884C137.292 51.3817 113.143 47.9746 101.944 48.6844C126.172 40.1667 142.008 54.9149 146.898 63.3538C154.848 45.5612 169.928 47.738 176.474 51.0504C149.595 50.2933 145.557 77.4444 146.898 91.1145C142.734 86.8237 143.428 75.7093 144.296 70.6884Z" fill="#0255A3"/>
<path d="M105.256 73.2911C107.149 64.0162 100.524 62.8017 96.9751 63.3538C111.644 58.8583 109.042 71.3982 110.225 82.7552C111.171 91.8407 120.556 93.3234 125.131 92.9291C117.796 100.264 109.988 93.4023 107.859 90.3265C105.729 87.2506 102.89 84.8846 105.256 73.2911Z" fill="#0255A3"/>
<path d="M166.773 87.9604C166.063 85.4367 165.353 78.9695 168.192 73.2911C163.382 74.3163 156.362 78.6856 166.773 87.9604Z" fill="#0255A3"/>
<path d="M180.023 75.4205C182.467 77.9442 187.31 83.9855 187.121 87.9604C183.098 87.8027 176.048 85.0739 180.023 75.4205Z" fill="#0255A3"/>
<path d="M148.554 102.157C148.554 98.7495 147.45 95.2162 146.898 93.8755C146.898 92.9291 147.214 90.9574 147.371 90.0898C148.507 92.3612 150.684 92.4559 151.63 92.2193C152.34 96.4781 149.737 116.826 168.192 127.236C182.956 135.565 197.689 125.817 203.21 119.902C199.992 119.234 198.714 117.573 198.478 116.826C211.917 116.826 212.122 108.624 210.544 104.523C213.951 105.28 214.961 109.886 215.04 112.094C220.908 101.683 213.226 99.7117 208.651 100.027L210.544 103.576C195.023 97.5192 196.664 85.1212 199.424 79.6793C201.317 89.7113 205.733 96.0049 207.705 97.8977C214.567 94.3487 220.245 96.7147 221.428 103.576C222.374 109.065 216.933 112.804 214.093 113.987C214.283 119.476 207.705 121.006 204.393 121.085C198.241 133.625 182.862 135.991 170.085 133.388C159.864 131.306 153.05 121.479 150.92 116.826C146.188 121.369 143.113 118.088 142.166 115.88C148.223 115.69 149.737 112.646 149.737 111.147C149.343 109.57 148.554 105.564 148.554 102.157Z" fill="#0255A3"/>
<path d="M223.321 69.2687C216.207 49.08 190.118 47.7379 179.313 50.1039C200.134 39.4568 224.504 50.1039 231.366 75.657C236.855 96.0995 224.189 110.674 217.169 115.406C225.924 101.447 231.826 93.4022 223.321 69.2687Z" fill="#0255A3"/>
<path d="M206.286 133.388C216.885 131.874 217.8 122.189 216.933 117.536C225.45 125.864 216.854 134.571 211.491 137.884C212.059 146.591 206.68 149.398 203.92 149.714C206.948 155.392 203.762 157.6 201.79 157.995C204.44 156.102 202.894 151.685 201.79 149.714C209.74 143.089 207.311 139.54 205.103 138.593C197.153 137.458 198.478 145.534 200.134 149.714C195.213 149.335 193.351 154.288 193.036 156.812C189.629 152.837 192.72 148.373 194.692 146.638C191.663 141.717 195.954 137.332 198.478 135.754C197.531 133.861 197.295 131.338 197.295 130.312C197.295 131.448 202.5 134.413 205.103 135.754C204.913 134.618 205.812 133.704 206.286 133.388Z" fill="#0255A3"/>
<path d="M210.071 119.429C213.778 122.11 217.737 128.656 203.92 133.388C207.232 130.47 213.1 123.593 210.071 119.429Z" fill="#0255A3"/>
<path d="M81.596 103.813C85.003 106.652 87.1167 103.734 87.7476 101.92C85.4763 101.92 85.6971 100.343 86.0914 99.554C83.7254 95.2951 77.3371 100.264 81.596 103.813Z" fill="#0255A3"/>
<path d="M101.234 103.813C99.1519 100.216 102.89 99.0019 105.02 98.8441C105.02 100.548 107.07 101.605 108.095 101.92C109.278 104.286 103.837 108.308 101.234 103.813Z" fill="#0255A3"/>
<path d="M165.826 100.027L165.353 101.447C168.003 101.068 167.719 102.709 167.246 103.576C166.063 104.759 162.277 105.469 161.094 103.103C159.911 100.737 161.804 97.6611 163.46 97.6611C164.785 97.6611 165.59 99.2385 165.826 100.027Z" fill="#0255A3"/>
<path d="M183.572 98.6075C185.938 97.8977 185.464 99.554 185.938 100.974C188.304 100.974 188.304 100.974 187.831 103.103C187.357 105.232 182.862 107.125 181.442 104.286C180.023 101.447 181.206 99.3174 183.572 98.6075Z" fill="#0255A3"/>
<path d="M202.973 66.4296C207.516 64.726 209.44 67.7703 209.835 69.5054C212.674 68.559 215.276 70.2152 216.223 71.1616C220.482 69.9786 222.375 72.8179 223.321 74.9473C224.267 77.0767 223.794 82.9918 216.933 84.1748C210.071 85.3578 200.844 81.8088 198.241 77.7865C196.313 74.8069 197.295 68.559 202.973 66.4296Z" fill="#0255A3"/>
<path d="M199.897 70.9251C201.79 66.7609 205.418 68.559 206.995 69.9786C205.339 71.1617 203.02 74.0009 206.995 75.8937C210.97 77.7865 211.175 73.37 210.781 70.9251C213.431 70.5465 214.567 71.7137 214.803 72.3447C212.201 73.2911 210.544 77.5499 214.803 78.2598C218.21 78.8276 217.485 75.3417 216.696 73.5277C219.062 73.2911 221.191 74.4741 220.008 78.9696C218.825 83.465 211.964 81.3356 206.286 79.6794C200.607 78.0231 197.531 76.1303 199.897 70.9251Z" fill="#FFB3CD"/>
<path d="M207.942 71.6349C208.494 72.739 209.267 74.9 207.942 74.7107C206.286 74.4741 206.759 72.3447 207.942 71.6349Z" fill="#FFB3CD"/>
<path d="M215.986 74.2375C216.459 75.2628 216.98 77.3133 215.276 77.3133C213.147 77.3133 215.004 74.2375 215.986 74.2375Z" fill="#FFB3CD"/>
<g clip-path="url(#clip0_9_183)">
<path d="M138.495 145.331L146.344 152.659C146.67 152.963 147.1 153.133 147.547 153.133C147.995 153.133 148.425 152.963 148.751 152.659L156.6 145.331C157.921 144.102 158.668 142.377 158.668 140.574V140.322C158.668 137.286 156.474 134.697 153.481 134.198C151.5 133.867 149.485 134.515 148.069 135.931L147.547 136.452L147.026 135.931C145.61 134.515 143.595 133.867 141.614 134.198C138.621 134.697 136.427 137.286 136.427 140.322V140.574C136.427 142.377 137.174 144.102 138.495 145.331Z" fill="#F71A46"/>
</g>
<path d="M92.1927 173.907C92.1927 175.808 91.3701 177.252 89.7248 178.239C90.6206 178.568 91.3701 179.135 91.9733 179.939C92.5766 180.744 92.8783 181.886 92.8783 183.367C92.8783 184.829 92.3298 185.99 91.233 186.849C90.1544 187.709 88.6005 188.138 86.5713 188.138H80.0999C79.7891 188.138 79.5332 188.038 79.3321 187.837C79.131 187.617 79.0304 187.334 79.0304 186.987V169.437C79.0304 169.236 79.0579 169.108 79.1127 169.053C79.1858 168.98 79.3229 168.943 79.524 168.943H85.7761C90.0538 168.943 92.1927 170.598 92.1927 173.907ZM84.2954 173.386V176.978H84.4325C86.1874 176.978 87.0649 176.393 87.0649 175.223C87.0649 174.583 86.8912 174.117 86.5439 173.824C86.2149 173.532 85.6573 173.386 84.8712 173.386H84.2954ZM84.2954 180.213V183.778H84.7889C85.575 183.778 86.1509 183.632 86.5165 183.339C86.8821 183.047 87.0649 182.581 87.0649 181.941C87.0649 181.301 86.8912 180.853 86.5439 180.597C86.2149 180.341 85.6573 180.213 84.8712 180.213H84.2954ZM103.977 169.492C103.977 169.126 104.964 168.943 106.939 168.943C108.931 168.943 109.928 169.126 109.928 169.492V182.078C109.928 183.943 109.26 185.469 107.926 186.657C106.591 187.827 104.745 188.412 102.387 188.412C100.047 188.412 98.1363 187.809 96.6556 186.603C95.1931 185.378 94.4618 183.733 94.4618 181.667V169.519C94.4618 169.153 95.449 168.971 97.4234 168.971C99.416 168.971 100.412 169.153 100.412 169.519V181.886C100.412 182.252 100.604 182.544 100.988 182.764C101.39 182.983 101.811 183.093 102.25 183.093C102.688 183.093 103.081 182.992 103.429 182.791C103.794 182.59 103.977 182.288 103.977 181.886V169.492ZM112.229 186.877V170.424C112.229 169.967 112.339 169.611 112.558 169.355C112.796 169.08 113.097 168.943 113.463 168.943H118.042C120.949 168.943 123.152 169.674 124.651 171.137C126.168 172.599 126.927 174.903 126.927 178.047C126.927 184.775 124.057 188.138 118.317 188.138H113.627C112.695 188.138 112.229 187.718 112.229 186.877ZM117.494 174.153V182.352C117.494 182.736 117.521 182.983 117.576 183.093C117.631 183.184 117.796 183.23 118.07 183.23C119.075 183.23 119.834 182.855 120.346 182.106C120.876 181.356 121.141 180.113 121.141 178.376C121.141 176.621 120.867 175.479 120.318 174.949C119.788 174.418 118.938 174.153 117.768 174.153H117.494ZM139.272 182.407L139.327 178.678C139.327 178.422 139.592 178.257 140.122 178.184C140.652 178.093 141.091 178.047 141.439 178.047L142.508 178.129C143.203 178.239 143.55 178.431 143.55 178.705L143.44 187.288C143.075 187.544 142.334 187.8 141.219 188.056C140.122 188.294 138.861 188.412 137.435 188.412C134.784 188.412 132.645 187.553 131.018 185.835C129.391 184.116 128.578 181.594 128.578 178.267C128.578 175.433 129.373 173.13 130.964 171.356C132.554 169.583 134.757 168.696 137.572 168.696C138.852 168.696 140.004 168.824 141.027 169.08C142.069 169.318 142.782 169.647 143.166 170.068C143.184 170.214 143.194 170.488 143.194 170.89C143.194 171.292 143.056 171.868 142.782 172.618C142.508 173.349 142.197 173.897 141.85 174.263C141.503 174.629 141.247 174.811 141.082 174.811C140.936 174.811 140.771 174.747 140.589 174.619C140.424 174.473 140.086 174.327 139.574 174.181C139.062 174.016 138.568 173.934 138.093 173.934C136.96 173.934 136.037 174.3 135.324 175.031C134.629 175.762 134.282 176.895 134.282 178.431C134.282 179.967 134.638 181.137 135.351 181.941C136.082 182.727 136.914 183.12 137.846 183.12C138.797 183.12 139.272 182.882 139.272 182.407ZM155.07 176.566C155.417 176.566 155.591 177.206 155.591 178.486C155.591 178.87 155.545 179.327 155.453 179.857C155.38 180.369 155.234 180.625 155.015 180.625H151.532V183.367H156.578C156.889 183.367 157.099 183.769 157.208 184.573C157.263 184.921 157.291 185.296 157.291 185.698C157.291 186.082 157.236 186.584 157.126 187.206C157.017 187.827 156.834 188.138 156.578 188.138H147.2C146.505 188.138 146.158 187.855 146.158 187.288V169.656C146.158 169.181 146.368 168.943 146.788 168.943H156.605C156.989 168.943 157.181 169.757 157.181 171.384C157.181 172.992 156.989 173.797 156.605 173.797H151.532V176.566H155.07ZM167.935 187.7C167.935 188.065 167.03 188.248 165.22 188.248C163.41 188.248 162.505 188.065 162.505 187.7V173.934H159.215C158.904 173.934 158.685 173.513 158.557 172.673C158.502 172.27 158.474 171.859 158.474 171.439C158.474 171.018 158.502 170.607 158.557 170.205C158.685 169.364 158.904 168.943 159.215 168.943H171.143C171.454 168.943 171.673 169.364 171.801 170.205C171.856 170.607 171.883 171.018 171.883 171.439C171.883 171.859 171.856 172.27 171.801 172.673C171.673 173.513 171.454 173.934 171.143 173.934H167.935V187.7ZM175.255 183.422V173.66H173.308C172.997 173.66 172.778 173.267 172.65 172.481C172.595 172.097 172.568 171.704 172.568 171.301C172.568 170.899 172.595 170.506 172.65 170.122C172.778 169.336 172.997 168.943 173.308 168.943H182.522C182.832 168.943 183.043 169.336 183.152 170.122C183.225 170.506 183.262 170.899 183.262 171.301C183.262 171.704 183.225 172.097 183.152 172.481C183.043 173.267 182.832 173.66 182.522 173.66H180.684V183.422H182.604C182.915 183.422 183.134 183.815 183.262 184.601C183.335 184.985 183.372 185.378 183.372 185.78C183.372 186.182 183.335 186.575 183.262 186.959C183.134 187.745 182.915 188.138 182.604 188.138H173.363C173.052 188.138 172.842 187.745 172.732 186.959C172.659 186.575 172.622 186.182 172.622 185.78C172.622 185.378 172.659 184.985 172.732 184.601C172.842 183.815 173.052 183.422 173.363 183.422H175.255ZM200.228 187.535C200.228 187.919 199.369 188.111 197.65 188.111C195.932 188.111 195 187.974 194.853 187.7L190.274 179.144V187.672C190.274 188.001 189.424 188.166 187.724 188.166C186.042 188.166 185.201 188.001 185.201 187.672V169.327C185.201 169.053 185.923 168.916 187.367 168.916C187.934 168.916 188.592 168.971 189.342 169.08C190.109 169.172 190.576 169.355 190.74 169.629L195.128 178.075V169.464C195.128 169.117 195.978 168.943 197.678 168.943C199.378 168.943 200.228 169.117 200.228 169.464V187.535ZM213.128 182.407L213.183 178.678C213.183 178.422 213.448 178.257 213.978 178.184C214.508 178.093 214.947 178.047 215.294 178.047L216.364 178.129C217.058 178.239 217.406 178.431 217.406 178.705L217.296 187.288C216.93 187.544 216.19 187.8 215.075 188.056C213.978 188.294 212.717 188.412 211.291 188.412C208.64 188.412 206.501 187.553 204.874 185.835C203.247 184.116 202.434 181.594 202.434 178.267C202.434 175.433 203.229 173.13 204.819 171.356C206.41 169.583 208.613 168.696 211.428 168.696C212.708 168.696 213.859 168.824 214.883 169.08C215.925 169.318 216.638 169.647 217.022 170.068C217.04 170.214 217.049 170.488 217.049 170.89C217.049 171.292 216.912 171.868 216.638 172.618C216.364 173.349 216.053 173.897 215.706 174.263C215.358 174.629 215.102 174.811 214.938 174.811C214.792 174.811 214.627 174.747 214.444 174.619C214.28 174.473 213.941 174.327 213.43 174.181C212.918 174.016 212.424 173.934 211.949 173.934C210.815 173.934 209.892 174.3 209.179 175.031C208.485 175.762 208.137 176.895 208.137 178.431C208.137 179.967 208.494 181.137 209.207 181.941C209.938 182.727 210.77 183.12 211.702 183.12C212.653 183.12 213.128 182.882 213.128 182.407Z" fill="#0255A3"/>
<defs>
<clipPath id="clip0_9_183">
<rect width="22.2406" height="22.2406" fill="white" transform="translate(136.427 132.282)"/>
</clipPath>
</defs>
</svg>
